<svg xmlns="http://www.w3.org/2000/svg" xmlns:xlink="http://www.w3.org/1999/xlink" width="500" zoomAndPan="magnify" viewBox="0 0 375 374.999991" height="500" preserveAspectRatio="xMidYMid meet" version="1.0"><defs><clipPath id="id1"><path d="M 5.460938 59.660156 L 363 59.660156 L 363 305 L 5.460938 305 Z M 5.460938 59.660156 " clip-rule="nonzero"/></clipPath></defs><g clip-path="url(#id1)"><path fill="#008037" d="M 227.1875 102.1875 C 225.988281 89.664062 227.332031 77.054688 226.128906 64.511719 C 226.121094 64.222656 226.058594 63.941406 225.945312 63.675781 C 225.832031 63.40625 225.671875 63.171875 225.464844 62.964844 C 225.257812 62.757812 225.023438 62.597656 224.753906 62.484375 C 224.484375 62.371094 224.207031 62.308594 223.914062 62.300781 C 195.703125 61.566406 167.484375 60.835938 139.261719 60.351562 C 111.597656 59.832031 83.921875 59.660156 56.257812 59.996094 C 40.121094 60.195312 23.996094 60.578125 7.875 61.148438 C 7.585938 61.152344 7.304688 61.214844 7.035156 61.328125 C 6.765625 61.441406 6.527344 61.601562 6.324219 61.808594 C 6.117188 62.011719 5.957031 62.25 5.84375 62.519531 C 5.726562 62.789062 5.667969 63.066406 5.664062 63.359375 C 5.664062 98.574219 5.847656 133.78125 6.808594 168.976562 C 7.277344 186.253906 7.957031 203.515625 8.847656 220.769531 C 9.300781 229.277344 9.816406 237.769531 10.402344 246.25 C 10.695312 250.5 11.003906 254.746094 11.328125 258.992188 C 11.46875 260.726562 11.113281 263.535156 12.519531 264.753906 C 13.902344 265.824219 15.453125 266.527344 17.167969 266.863281 C 23.96875 268.394531 30.953125 265.128906 35.75 260.414062 C 41.035156 255.214844 44.425781 248.539062 49.761719 243.382812 C 50.957031 242.242188 52.214844 241.175781 53.53125 240.179688 C 54.851562 239.183594 56.222656 238.265625 57.644531 237.421875 C 59.066406 236.582031 60.53125 235.824219 62.042969 235.148438 C 63.550781 234.476562 65.09375 233.890625 66.667969 233.390625 C 68.242188 232.890625 69.839844 232.480469 71.464844 232.164062 C 73.085938 231.84375 74.71875 231.617188 76.367188 231.484375 C 78.015625 231.351562 79.664062 231.3125 81.316406 231.367188 C 82.96875 231.421875 84.613281 231.570312 86.25 231.8125 C 99.261719 233.847656 110.539062 242.421875 116.722656 253.957031 C 122.910156 265.492188 124.316406 282.082031 115.152344 292.636719 C 107.582031 301.363281 93.5625 302.855469 83.863281 296.894531 C 73.921875 290.824219 71.351562 277.390625 75.8125 267.09375 C 81.589844 253.75 96.683594 251.753906 109.644531 252.144531 C 118.214844 252.40625 126.796875 253.117188 135.359375 253.644531 L 161.949219 255.28125 L 215.820312 258.59375 C 220.226562 258.863281 224.636719 259.148438 229.042969 259.40625 C 232.988281 259.792969 236.910156 259.617188 240.804688 258.886719 C 248.40625 257.15625 252.769531 250.878906 258.460938 246.199219 C 268.671875 237.808594 283.125 234.066406 296.03125 237.261719 C 297.527344 237.648438 298.988281 238.128906 300.417969 238.707031 C 301.851562 239.285156 303.238281 239.957031 304.578125 240.71875 C 305.921875 241.480469 307.207031 242.324219 308.4375 243.257812 C 309.667969 244.1875 310.832031 245.195312 311.925781 246.28125 C 313.023438 247.363281 314.042969 248.515625 314.988281 249.738281 C 315.933594 250.957031 316.792969 252.230469 317.566406 253.566406 C 318.34375 254.898438 319.027344 256.277344 319.621094 257.699219 C 320.214844 259.125 320.710938 260.578125 321.113281 262.070312 C 324.425781 274.261719 320.019531 287.019531 309.253906 293.910156 C 306.679688 295.589844 303.914062 296.832031 300.949219 297.640625 C 297.988281 298.449219 294.972656 298.78125 291.902344 298.644531 C 285.648438 298.296875 278.890625 295.382812 275.472656 289.871094 C 274.71875 288.550781 274.125 287.164062 273.6875 285.710938 C 273.25 284.253906 272.980469 282.769531 272.878906 281.253906 C 272.773438 279.738281 272.84375 278.230469 273.082031 276.730469 C 273.320312 275.230469 273.722656 273.773438 274.292969 272.363281 C 276.46875 267.085938 280.875 263.023438 285.742188 260.230469 C 288.84375 258.464844 292.117188 257.121094 295.5625 256.191406 C 299.011719 255.265625 302.519531 254.789062 306.085938 254.761719 C 314.03125 254.648438 321.796875 256.496094 329.457031 258.359375 C 336.847656 260.195312 344.207031 262.101562 351.789062 262.980469 C 352.285156 262.976562 352.734375 262.824219 353.128906 262.523438 C 353.523438 262.21875 353.789062 261.828125 353.921875 261.347656 C 360.617188 227.070312 367.507812 191.035156 357.523438 156.667969 C 353.332031 142.378906 346.398438 128.777344 336.1875 117.902344 C 325.980469 107.023438 312.558594 99.441406 298.175781 95.445312 C 281.8125 90.914062 264.410156 90.773438 247.804688 94.050781 C 245.011719 94.605469 246.203125 98.859375 248.984375 98.3125 C 276.957031 92.765625 308.722656 97.699219 329.96875 117.902344 C 352.011719 138.839844 358.910156 170.640625 358.015625 199.996094 C 357.398438 220.292969 353.496094 240.28125 349.609375 260.160156 L 351.742188 258.542969 C 338.105469 256.964844 325.1875 251.660156 311.472656 250.523438 C 299.371094 249.519531 286.566406 252.605469 277.34375 260.8125 C 269.3125 267.960938 266.242188 278.875 270.136719 289.03125 C 274.378906 300.117188 287.488281 304.390625 298.410156 302.707031 C 309.042969 301.078125 319.082031 293.964844 323.636719 284.144531 C 328.285156 274.097656 327.210938 262.476562 322.144531 252.792969 C 320.875 250.359375 319.367188 248.082031 317.617188 245.964844 C 315.867188 243.847656 313.917969 241.9375 311.761719 240.230469 C 309.609375 238.523438 307.300781 237.0625 304.839844 235.84375 C 302.375 234.625 299.8125 233.675781 297.152344 233 C 285.761719 230.15625 273.433594 232.195312 263.171875 237.742188 C 257.75 240.667969 253.472656 244.675781 249.046875 248.929688 C 246.714844 251.164062 244.199219 253.261719 241.066406 254.226562 C 237.769531 255.257812 234.28125 255.246094 230.863281 255.089844 C 215.335938 254.371094 199.808594 253.195312 184.285156 252.238281 L 137.761719 249.371094 C 130.085938 248.902344 122.40625 248.402344 114.730469 247.957031 C 108.351562 247.59375 101.960938 247.449219 95.644531 248.417969 C 92.605469 248.820312 89.679688 249.613281 86.859375 250.804688 C 84.035156 251.996094 81.425781 253.542969 79.023438 255.4375 C 77.113281 257.070312 75.464844 258.933594 74.074219 261.023438 C 72.683594 263.117188 71.601562 265.355469 70.832031 267.746094 C 67.589844 277.355469 69.304688 288.796875 76.28125 296.347656 C 83.253906 303.894531 94.679688 306.390625 104.507812 303.929688 C 115.960938 301.070312 123.542969 291.449219 125.476562 280.035156 C 129.390625 256.867188 112.777344 233.078125 89.910156 228.035156 C 87.058594 227.429688 84.179688 227.085938 81.265625 227.003906 C 78.355469 226.917969 75.460938 227.097656 72.582031 227.535156 C 69.699219 227.972656 66.882812 228.667969 64.128906 229.613281 C 61.375 230.5625 58.730469 231.746094 56.1875 233.171875 C 51.058594 236.039062 46.652344 239.753906 42.96875 244.328125 C 38.933594 249.335938 35.601562 255.402344 30.335938 259.285156 C 26 262.5 19.8125 264.332031 14.992188 261.113281 L 16.082031 263.023438 C 14.035156 237.445312 12.664062 211.816406 11.746094 186.171875 C 10.878906 160.171875 10.410156 134.109375 10.21875 108.0625 C 10.113281 93.167969 10.070312 78.265625 10.089844 63.359375 L 7.875 65.570312 C 36.070312 64.566406 64.28125 64.128906 92.503906 64.261719 C 120.1875 64.347656 147.859375 64.875 175.523438 65.527344 C 191.648438 65.90625 207.777344 66.308594 223.914062 66.722656 L 221.675781 64.511719 C 222.882812 77.046875 221.539062 89.648438 222.734375 102.1875 C 223.003906 104.996094 227.4375 105.03125 227.160156 102.1875 Z M 227.1875 102.1875 " fill-opacity="1" fill-rule="nonzero"/></g><path fill="#008037" d="M 222.761719 134.125 C 223.699219 149.464844 224.429688 164.820312 224.957031 180.183594 C 225.480469 195.546875 225.804688 210.839844 225.925781 226.066406 C 225.984375 234.734375 225.984375 243.421875 225.925781 252.136719 C 225.925781 254.980469 230.324219 254.988281 230.351562 252.136719 C 230.457031 236.773438 230.359375 221.402344 230.066406 206.027344 C 229.769531 190.652344 229.289062 175.363281 228.617188 160.160156 C 228.21875 151.496094 227.753906 142.828125 227.21875 134.160156 C 227.046875 131.335938 222.621094 131.308594 222.796875 134.160156 Z M 222.761719 134.125 " fill-opacity="1" fill-rule="nonzero"/><path fill="#008037" d="M 350.199219 143.277344 C 328.433594 142.742188 306.648438 142.933594 284.875 143.277344 C 278.769531 143.375 272.65625 143.484375 266.535156 143.597656 C 266.246094 143.605469 265.964844 143.664062 265.695312 143.777344 C 265.429688 143.894531 265.191406 144.050781 264.984375 144.257812 C 264.777344 144.464844 264.617188 144.703125 264.503906 144.96875 C 264.390625 145.238281 264.328125 145.519531 264.324219 145.808594 L 263.726562 177.234375 C 263.648438 181.363281 263.300781 185.753906 265.121094 189.59375 C 267.082031 193.746094 271.378906 194.96875 275.609375 195.28125 C 284.46875 195.9375 293.378906 196.148438 302.242188 196.382812 C 311.527344 196.640625 320.808594 196.832031 330.082031 197.074219 C 340.164062 197.335938 350.242188 197.648438 360.304688 198.234375 C 363.152344 198.410156 363.144531 193.988281 360.304688 193.816406 C 342.703125 192.785156 325.058594 192.558594 307.429688 192.082031 C 298.667969 191.855469 289.914062 191.597656 281.164062 191.15625 C 279.203125 191.058594 277.234375 190.980469 275.273438 190.816406 C 273.582031 190.679688 271.679688 190.410156 270.335938 189.28125 C 267.734375 187.097656 268.046875 182.824219 268.097656 179.800781 L 268.75 145.792969 L 266.535156 148.003906 C 288.3125 147.59375 310.085938 147.214844 331.859375 147.378906 C 337.976562 147.429688 344.09375 147.515625 350.199219 147.671875 C 353.054688 147.742188 353.054688 143.339844 350.199219 143.253906 Z M 350.199219 143.277344 " fill-opacity="1" fill-rule="nonzero"/></svg>